HIERARCHY
ROOT joint_Root
{
	OFFSET 0.0 0.0 0.0
	CHANNELS 6 Xposition Yposition Zposition Zrotation Xrotation Yrotation 
	JOINT Hips
	{
		OFFSET -0.726466 93.3139 -2.00062
		CHANNELS 6 Xposition Yposition Zposition Zrotation Xrotation Yrotation 
		JOINT Spine
		{
			OFFSET 15.7357 0.0 0.0
			CHANNELS 6 Xposition Yposition Zposition Zrotation Xrotation Yrotation 
			JOINT Chest
			{
				OFFSET 8.98455 -0.406207 0.0
				CHANNELS 6 Xposition Yposition Zposition Zrotation Xrotation Yrotation 
				JOINT Neck
				{
					OFFSET 16.3773 0.0 0.0
					CHANNELS 6 Xposition Yposition Zposition Zrotation Xrotation Yrotation 
					JOINT Head
					{
						OFFSET 6.45672 0.0 0.0
						CHANNELS 6 Xposition Yposition Zposition Zrotation Xrotation Yrotation 
						End Site
						{
							OFFSET 0.0 0.0 0.0
						}
					}
				}
				JOINT Shoulder_L
				{
					OFFSET 12.9942 -0.242716 4.98039
					CHANNELS 6 Xposition Yposition Zposition Zrotation Xrotation Yrotation 
					JOINT UpperArm_L
					{
						OFFSET 5.34809 0.0 0.0
						CHANNELS 6 Xposition Yposition Zposition Zrotation Xrotation Yrotation 
						JOINT LowerArm_L
						{
							OFFSET 24.3286 1.87007e-05 0.0
							CHANNELS 6 Xposition Yposition Zposition Zrotation Xrotation Yrotation 
							JOINT Hand_L
							{
								OFFSET 22.2916 0.0 0.0
								CHANNELS 6 Xposition Yposition Zposition Zrotation Xrotation Yrotation 
								End Site
								{
									OFFSET 0.0 0.0 0.0
								}
							}
						}
					}
				}
				JOINT Shoulder_R
				{
					OFFSET 12.9945 -0.242716 -4.98039
					CHANNELS 6 Xposition Yposition Zposition Zrotation Xrotation Yrotation 
					JOINT UpperArm_R
					{
						OFFSET -5.34813 0.0 0.0
						CHANNELS 6 Xposition Yposition Zposition Zrotation Xrotation Yrotation 
						JOINT LowerArm_R
						{
							OFFSET -24.3289 0.000322201 0.0
							CHANNELS 6 Xposition Yposition Zposition Zrotation Xrotation Yrotation 
							JOINT Hand_R
							{
								OFFSET -22.2915 -0.000108084 0.0
								CHANNELS 6 Xposition Yposition Zposition Zrotation Xrotation Yrotation 
								End Site
								{
									OFFSET 0.0 0.0 0.0
								}
							}
						}
					}
				}
			}
		}
		JOINT UpperLeg_L
		{
			OFFSET -2.19248 -6.46944 0.0
			CHANNELS 6 Xposition Yposition Zposition Zrotation Xrotation Yrotation 
			JOINT LowerLeg_L
			{
				OFFSET 39.0811 0.0 -1.23785e-05
				CHANNELS 6 Xposition Yposition Zposition Zrotation Xrotation Yrotation 
				JOINT Foot_L
				{
					OFFSET 40.9854 0.0 -1.26872e-05
					CHANNELS 6 Xposition Yposition Zposition Zrotation Xrotation Yrotation 
					JOINT Toes_L
					{
						OFFSET 11.7543 0.0 0.0
						CHANNELS 6 Xposition Yposition Zposition Zrotation Xrotation Yrotation 
						End Site
						{
							OFFSET 0.0 0.0 0.0
						}
					}
				}
			}
		}
		JOINT UpperLeg_R
		{
			OFFSET -2.19251 6.46944 0.0
			CHANNELS 6 Xposition Yposition Zposition Zrotation Xrotation Yrotation 
			JOINT LowerLeg_R
			{
				OFFSET -39.0811 -0.00228153 -0.0401928
				CHANNELS 6 Xposition Yposition Zposition Zrotation Xrotation Yrotation 
				JOINT Foot_R
				{
					OFFSET -40.9854 0.0 0.0
					CHANNELS 6 Xposition Yposition Zposition Zrotation Xrotation Yrotation 
					JOINT Toes_R
					{
						OFFSET -11.7543 0.0 0.0
						CHANNELS 6 Xposition Yposition Zposition Zrotation Xrotation Yrotation 
						End Site
						{
							OFFSET 0.0 0.0 0.0
						}
					}
				}
			}
		}
	}
}
MOTION
Frames:	5
Frame Time:	0.0333333
0.000000 0.000000 0.000000 0.000000 0.000000 -0.000000 -1.162020 91.921300 0.336979 87.461700 -1.677610 1.585930 15.735700 0.000005 -0.000001 86.333400 86.410700 -86.143400 8.984550 -0.406207 -0.000000 -0.601378 -0.472851 0.377331 16.377300 -0.000001 -0.000001 2.482900 -0.226772 -2.456480 6.456720 -0.000001 -0.000000 1.716590 0.139934 4.798680 12.994200 -0.242716 4.980390 -89.371800 -1.611610 -68.701000 5.348090 -0.000007 -0.000001 -68.234100 33.124800 -12.881600 24.328600 0.000019 0.000005 2.239960 5.305560 -22.928600 22.291600 -0.000001 0.000005 4.514560 5.570720 -9.723720 12.994500 -0.242716 -4.980390 87.777900 5.890820 -69.290200 -5.348130 -0.000001 -0.000004 -65.440500 34.612700 -8.320180 -24.328900 0.000322 -0.000009 -0.570079 -1.111200 -27.132500 -22.291500 -0.000108 -0.000004 9.133030 5.602420 -11.488900 -2.192480 -6.469440 -0.000000 -168.057000 -16.337200 -2.750270 39.081100 -0.000007 -0.000012 -0.198338 0.519615 20.892200 40.985400 -0.000006 -0.000013 -7.428110 1.533190 -64.227700 11.754300 -0.000000 0.000003 -0.000114 -0.001154 -16.621700 -2.192510 6.469440 -0.000001 174.470000 20.104200 179.257000 -39.081100 -0.002282 -0.040193 -0.070762 0.225705 18.172300 -40.985400 0.000008 0.000006 -4.789360 3.892860 -63.550700 -11.754300 -0.000006 -0.000006 -0.004407 -0.055612 -18.835500
0.000000 0.000000 0.000000 0.000000 0.000000 -0.000000 -1.146440 91.933300 0.282193 87.463300 -1.787840 1.547340 15.735700 0.000005 -0.000001 86.627000 86.368600 -86.344800 8.984550 -0.406207 -0.000000 -0.514621 -0.447607 0.562123 16.377300 -0.000001 -0.000001 2.332990 -0.163857 -2.548080 6.456720 -0.000001 -0.000000 1.615850 -0.011807 4.723420 12.994200 -0.242716 4.980390 -89.433600 -1.433630 -68.438700 5.348090 -0.000007 -0.000001 -67.224400 31.782900 -13.491100 24.328600 0.000019 0.000005 2.249960 5.345050 -22.868500 22.291600 -0.000001 0.000005 4.993450 5.578270 -10.118400 12.994500 -0.242716 -4.980390 87.895200 5.549230 -69.190600 -5.348130 -0.000001 -0.000004 -63.580600 38.738200 -7.755950 -24.328900 0.000322 -0.000009 -0.275150 -0.434658 -32.354900 -22.291500 -0.000108 -0.000004 8.276410 5.606890 -11.769400 -2.192480 -6.469440 -0.000000 -168.088000 -16.345400 -2.776310 39.081100 -0.000007 -0.000012 -0.197347 0.518525 20.836800 40.985400 -0.000006 -0.000013 -7.429150 1.449190 -64.185400 11.754300 -0.000000 0.000003 -0.000138 -0.001353 -16.629100 -2.192510 6.469440 -0.000001 174.493000 20.063200 179.181000 -39.081100 -0.002282 -0.040193 -0.069793 0.223424 18.121200 -40.985400 0.000008 0.000006 -4.806970 3.913480 -63.468200 -11.754300 -0.000006 -0.000006 -0.004446 -0.056001 -18.851300
0.000000 0.000000 0.000000 0.000000 0.000000 -0.000000 -1.137670 91.945300 0.205305 87.509900 -1.790670 1.531340 15.735700 0.000005 -0.000001 86.646000 86.312400 -86.276200 8.984550 -0.406207 -0.000000 -0.401853 -0.457748 0.737733 16.377300 -0.000001 -0.000001 2.261680 -0.166224 -2.610180 6.456720 -0.000001 -0.000000 1.423940 -0.077843 4.668830 12.994200 -0.242716 4.980390 -89.449200 -1.383070 -68.283000 5.348090 -0.000007 -0.000001 -65.233000 30.455600 -14.864100 24.328600 0.000019 0.000005 2.263780 5.497490 -22.422700 22.291600 -0.000001 0.000005 5.403200 5.580090 -10.215800 12.994500 -0.242716 -4.980390 88.011400 5.209720 -69.073200 -5.348130 -0.000001 -0.000004 -61.415200 42.630800 -6.728310 -24.328900 0.000322 -0.000009 0.248769 0.305402 -39.233400 -22.291500 -0.000108 -0.000004 6.740030 5.613730 -12.207400 -2.192480 -6.469440 -0.000000 -168.165000 -16.371700 -2.822270 39.081100 -0.000007 -0.000012 -0.195287 0.514690 20.778400 40.985400 -0.000006 -0.000013 -7.412590 1.414620 -64.102700 11.754300 -0.000000 0.000003 -0.000122 -0.001220 -16.624200 -2.192510 6.469440 -0.000001 174.473000 20.030900 179.096000 -39.081100 -0.002282 -0.040193 -0.069708 0.223062 18.129000 -40.985400 0.000008 0.000006 -4.803290 3.901210 -63.419800 -11.754300 -0.000006 -0.000006 -0.004340 -0.054931 -18.807700
0.000000 0.000000 0.000000 0.000000 0.000000 -0.000000 -1.143470 91.952300 0.156358 87.557900 -1.643840 1.571440 15.735700 0.000005 -0.000001 85.698800 86.238400 -85.204000 8.984550 -0.406207 -0.000000 -0.261270 -0.598750 0.987733 16.377300 -0.000001 -0.000001 2.186510 -0.177128 -2.707390 6.456720 -0.000001 -0.000000 1.240860 -0.029060 4.605210 12.994200 -0.242716 4.980390 -89.421300 -1.445780 -68.181700 5.348090 -0.000007 -0.000001 -62.663000 28.349400 -16.590400 24.328600 0.000019 0.000005 2.449500 6.143030 -21.789100 22.291600 -0.000001 0.000005 5.917310 5.582210 -10.330400 12.994500 -0.242716 -4.980390 88.187400 4.689860 -68.841100 -5.348130 -0.000001 -0.000004 -59.015900 46.364200 -5.597120 -24.328900 0.000322 -0.000009 0.943840 0.877343 -47.080800 -22.291500 -0.000108 -0.000004 4.791890 5.622970 -12.834600 -2.192480 -6.469440 -0.000000 -168.216000 -16.289700 -2.837460 39.081100 -0.000007 -0.000012 -0.194728 0.514546 20.729200 40.985400 -0.000006 -0.000013 -7.388110 1.489350 -64.022800 11.754300 -0.000000 0.000003 -0.000142 -0.001390 -16.630500 -2.192510 6.469440 -0.000001 174.416000 20.105100 179.129000 -39.081100 -0.002282 -0.040193 -0.069865 0.223537 18.129300 -40.985400 0.000008 0.000006 -4.830100 3.841050 -63.406300 -11.754300 -0.000006 -0.000006 -0.004512 -0.056663 -18.878300
0.000000 0.000000 0.000000 0.000000 0.000000 -0.000000 -1.163000 91.955100 0.108981 87.593800 -1.412010 1.626520 15.735700 0.000005 -0.000001 84.147700 86.156000 -83.496000 8.984550 -0.406207 -0.000000 -0.113104 -0.828500 1.301740 16.377300 -0.000001 -0.000001 2.136670 -0.218550 -2.683690 6.456720 -0.000001 -0.000000 1.036660 0.142491 4.449650 12.994200 -0.242716 4.980390 -89.340400 -1.644500 -68.140500 5.348090 -0.000007 -0.000001 -59.961500 25.059300 -18.354300 24.328600 0.000019 0.000005 2.432030 6.292680 -21.180700 22.291600 -0.000001 0.000005 6.874200 5.582920 -10.371100 12.994500 -0.242716 -4.980390 88.381600 4.127050 -68.565400 -5.348130 -0.000001 -0.000004 -56.160000 49.937800 -4.565120 -24.328900 0.000322 -0.000009 2.474830 1.694280 -55.610700 -22.291500 -0.000108 -0.000004 2.463750 5.628970 -13.264900 -2.192480 -6.469440 -0.000000 -168.241000 -16.174600 -2.867790 39.081100 -0.000007 -0.000012 -0.193147 0.510856 20.711100 40.985400 -0.000006 -0.000013 -7.371640 1.586440 -63.947900 11.754300 -0.000000 0.000003 -0.000121 -0.001210 -16.623800 -2.192510 6.469440 -0.000001 174.397000 20.177100 179.154000 -39.081100 -0.002282 -0.040193 -0.069850 0.222686 18.190700 -40.985400 0.000008 0.000006 -4.811850 3.673400 -63.444000 -11.754300 -0.000006 -0.000006 -0.004376 -0.055299 -18.822700
